<svg id="Layer_1" data-name="Layer 1" xmlns="http://www.w3.org/2000/svg" viewBox="0 0 1561 1416"><defs><style>.cls-1{fill:#006ee8;}.cls-2{fill:#45acff;}.cls-3{fill:#fff;}</style></defs><path class="cls-1" d="M498.1,714V650.67q0-7.89,7.89-7.88h79q23.91,0,23.78,23.78-.13,15.49-7.62,15.5,7.36.39,7.49,16.29.25,23.39-23.39,23.38l-79.21.13Q498.1,721.87,498.1,714Zm87.1-55.31H513.87v15.77H585.2q7.89,0,7.82-7.82T585.2,658.68ZM593,698q-.06-7.81-8.08-7.68H513.87V706l71.2-.26Q593.09,705.84,593,698Z"/><path class="cls-1" d="M629.94,642.79q7.81,0,7.95,7.88v39.41q0,16,15.89,16h47.56q15.88,0,15.76-16V650.8q0-8,7.89-8t7.88,8.14v39q0,31.92-31.66,31.92H653.78q-31.66,0-31.66-31.79V650.67Q622.12,642.78,629.94,642.79Z"/><path class="cls-2" d="M786.83,643l71.07-.13q7.62,0,7.62,7.82t-7.62,7.81H786.83q-15.76.27-15.77,16v15.63q0,15.9,15.9,15.9H858q7.76,0,7.69,7.88t-7.82,7.89H786.83q-31.53,0-31.53-31.67V674.48Q755.3,643,786.83,643Z"/><path class="cls-2" d="M878.79,713.89V650.7q0-7.87,7.82-7.88t7.94,7.49v24.17h79.22l-.13-24q.14-7.62,8-7.62t7.75,7.75v63.19c0,5.26-2.61,7.9-7.82,8s-7.82-2.61-7.82-8V690.25H894.55V714q-.12,7.76-7.94,7.76T878.79,713.89Z"/><path class="cls-2" d="M1002.81,713.89l13.66-63.32q2.1-7.87,10-7.88h63.33q7.88,0,9.32,8l14.58,63.06q0,7.89-6.89,7.88t-9-8l-6.18-23.38h-68l-5,23.77q-1.85,7.76-8.8,7.76T1002.81,713.89Zm86.83-39.54-4.07-15.77H1030l-3.68,15.77Z"/><path class="cls-2" d="M1134.84,642.69q7.88,0,8,7.88l-.13,63.19q0,8-7.88,8t-7.89-7.89V650.57Q1127,642.7,1134.84,642.69Z"/><path class="cls-2" d="M1156.38,713.89V650.7q0-7.87,5.78-7.88a14.12,14.12,0,0,1,10,3.94L1251.1,698l.13-47.56q.13-7.62,8-7.62t7.75,7.75v63.19c0,5.26-2.06,7.9-6.18,8s-7.4-1.12-9.85-3.48l-78.82-52V714q-.14,7.76-8,7.76T1156.38,713.89Z"/><path class="cls-1" d="M334.86,639.58a4,4,0,0,1-2.82-6.82l23.5-23.51a4,4,0,1,1,5.66,5.66l-23.51,23.5A4,4,0,0,1,334.86,639.58Z"/><path class="cls-1" d="M399.07,639.58a4,4,0,0,1-2.83-1.17l-23.51-23.5a4,4,0,1,1,5.66-5.66l23.51,23.51a4,4,0,0,1-2.83,6.82Z"/><path class="cls-1" d="M293.89,680.56a4,4,0,0,1-2.83-6.83l23.51-23.5a4,4,0,0,1,5.66,5.65l-23.51,23.51A4,4,0,0,1,293.89,680.56Z"/><path class="cls-1" d="M358.09,680.56a4,4,0,0,1-2.82-1.17l-23.51-23.51a4,4,0,0,1,5.66-5.65l23.5,23.5a4,4,0,0,1-2.83,6.83Z"/><path class="cls-1" d="M375.84,680.56a4,4,0,0,1-2.83-6.83l23.51-23.5a4,4,0,0,1,5.65,5.65l-23.5,23.51A4,4,0,0,1,375.84,680.56Z"/><path class="cls-1" d="M440,680.56a4,4,0,0,1-2.83-1.17l-23.5-23.51a4,4,0,0,1,5.65-5.65l23.51,23.5a4,4,0,0,1-2.83,6.83Z"/><path class="cls-2" d="M375.56,762.37a4,4,0,0,1-2.83-6.83L396.24,732a4,4,0,0,1,5.66,5.65L378.39,761.2A4,4,0,0,1,375.56,762.37Z"/><path class="cls-2" d="M358.37,762.37a4,4,0,0,1-2.83-1.17L332,737.69a4,4,0,0,1,5.65-5.65l23.51,23.5a4,4,0,0,1-2.83,6.83Z"/><path class="cls-2" d="M416.54,721.4a4,4,0,0,1-2.83-6.83l23.5-23.51a4,4,0,0,1,5.66,5.66l-23.51,23.5A4,4,0,0,1,416.54,721.4Z"/><path class="cls-2" d="M399.35,721.4a4,4,0,0,1-2.83-1.18L373,696.72a4,4,0,0,1,5.66-5.66l23.5,23.51a4,4,0,0,1-2.82,6.83Z"/><path class="cls-2" d="M334.59,721.4a4,4,0,0,1-2.83-6.83l23.51-23.51a4,4,0,1,1,5.65,5.66l-23.5,23.5A4,4,0,0,1,334.59,721.4Z"/><path class="cls-2" d="M317.4,721.4a4,4,0,0,1-2.83-1.18l-23.51-23.5a4,4,0,1,1,5.66-5.66l23.51,23.51a4,4,0,0,1-2.83,6.83Z"/><path class="cls-3" d="M695.73,743.73c1.68,26.14-1.18,52.4,1.35,78.5a155.24,155.24,0,0,0,3.63,21.84c.46,1.87,3.35,1.08,2.89-.8-6.24-25.4-4.36-51.73-4.29-77.63,0-7.31-.11-14.61-.58-21.91-.12-1.91-3.12-1.93-3,0Z"/></svg>