<svg id="Layer_1" data-name="Layer 1" xmlns="http://www.w3.org/2000/svg" viewBox="0 0 1561 1416"><defs><style>.cls-1{fill:#fff;}</style></defs><path class="cls-1" d="M498.1,714.92V651.6q0-7.87,7.89-7.88h79q23.91,0,23.78,23.78-.13,15.5-7.62,15.5,7.36.39,7.49,16.29.25,23.38-23.39,23.38l-79.21.14Q498.1,722.81,498.1,714.92Zm87.1-55.31H513.87v15.77H585.2q7.89,0,7.82-7.82T585.2,659.61ZM593,699q-.06-7.82-8.08-7.68H513.87v15.63l71.2-.26Q593.09,706.79,593,699Z"/><path class="cls-1" d="M629.94,643.72q7.81,0,7.95,7.88V691q0,16,15.89,16h47.56q15.88,0,15.76-16V651.73q0-8,7.89-8t7.88,8.14v39q0,31.92-31.66,31.93H653.78q-31.66,0-31.66-31.8V651.6Q622.12,643.73,629.94,643.72Z"/><path class="cls-1" d="M786.83,644l71.07-.13q7.62,0,7.62,7.82t-7.62,7.81H786.83q-15.76.27-15.77,16v15.63q0,15.9,15.9,15.9H858q7.76,0,7.69,7.88t-7.82,7.89H786.83q-31.53,0-31.53-31.67V675.51Q755.3,644,786.83,644Z"/><path class="cls-1" d="M878.79,714.92V651.73q0-7.87,7.82-7.88t7.94,7.49v24.17h79.22l-.13-24q.14-7.62,8-7.62t7.75,7.75v63.19c0,5.26-2.61,7.9-7.82,8s-7.82-2.6-7.82-8V691.28H894.55v23.77q-.12,7.76-7.94,7.76T878.79,714.92Z"/><path class="cls-1" d="M1002.81,714.92l13.66-63.32q2.1-7.87,10-7.88h63.33q7.88,0,9.32,8l14.58,63.06q0,7.89-6.89,7.88t-9-8l-6.18-23.38h-68l-5,23.77q-1.85,7.76-8.8,7.76T1002.81,714.92Zm86.83-39.54-4.07-15.77H1030l-3.68,15.77Z"/><path class="cls-1" d="M1134.84,643.72q7.88,0,8,7.88l-.13,63.19q0,8-7.88,8t-7.89-7.89V651.6Q1127,643.73,1134.84,643.72Z"/><path class="cls-1" d="M1156.38,714.92V651.73q0-7.87,5.78-7.88a14.12,14.12,0,0,1,10,3.94L1251.1,699l.13-47.56q.13-7.62,8-7.62t7.75,7.75v63.19c0,5.26-2.06,7.9-6.18,8s-7.4-1.12-9.85-3.48l-78.82-52v47.82q-.14,7.76-8,7.76T1156.38,714.92Z"/><path class="cls-1" d="M334.86,637.62A4,4,0,0,1,332,630.8l23.5-23.51A4,4,0,0,1,361.2,613l-23.51,23.5A4,4,0,0,1,334.86,637.62Z"/><path class="cls-1" d="M399.07,637.62a4,4,0,0,1-2.83-1.17L372.73,613a4,4,0,0,1,5.66-5.66L401.9,630.8a4,4,0,0,1-2.83,6.82Z"/><path class="cls-1" d="M293.89,678.6a4,4,0,0,1-2.83-6.83l23.51-23.51a4,4,0,1,1,5.66,5.66l-23.51,23.51A4,4,0,0,1,293.89,678.6Z"/><path class="cls-1" d="M358.09,678.6a4,4,0,0,1-2.82-1.17l-23.51-23.51a4,4,0,1,1,5.66-5.66l23.5,23.51a4,4,0,0,1-2.83,6.83Z"/><path class="cls-1" d="M375.84,678.6a4,4,0,0,1-2.83-6.83l23.51-23.51a4,4,0,1,1,5.65,5.66l-23.5,23.51A4,4,0,0,1,375.84,678.6Z"/><path class="cls-1" d="M440,678.6a4,4,0,0,1-2.83-1.17l-23.5-23.51a4,4,0,1,1,5.65-5.66l23.51,23.51A4,4,0,0,1,440,678.6Z"/><path class="cls-1" d="M375.56,760.41a4,4,0,0,1-2.83-6.83l23.51-23.51a4,4,0,0,1,5.66,5.66l-23.51,23.51A4,4,0,0,1,375.56,760.41Z"/><path class="cls-1" d="M358.37,760.41a4,4,0,0,1-2.83-1.17L332,735.73a4,4,0,0,1,5.65-5.66l23.51,23.51a4,4,0,0,1-2.83,6.83Z"/><path class="cls-1" d="M416.54,719.43a4,4,0,0,1-2.83-6.82l23.5-23.51a4,4,0,0,1,5.66,5.66l-23.51,23.5A4,4,0,0,1,416.54,719.43Z"/><path class="cls-1" d="M399.35,719.43a4,4,0,0,1-2.83-1.17L373,694.76a4,4,0,0,1,5.66-5.66l23.5,23.51a4,4,0,0,1-2.82,6.82Z"/><path class="cls-1" d="M334.59,719.43a4,4,0,0,1-2.83-6.82l23.51-23.51a4,4,0,0,1,5.65,5.66l-23.5,23.5A4,4,0,0,1,334.59,719.43Z"/><path class="cls-1" d="M317.4,719.43a4,4,0,0,1-2.83-1.17l-23.51-23.5a4,4,0,0,1,5.66-5.66l23.51,23.51a4,4,0,0,1-2.83,6.82Z"/></svg>