<svg id="Layer_1" data-name="Layer 1" xmlns="http://www.w3.org/2000/svg" viewBox="0 0 1561 1416"><defs><style>.cls-1{fill:#006ee8;}.cls-2{fill:#45acff;}</style></defs><path class="cls-1" d="M621.54,482a19.81,19.81,0,0,1-14-33.81l116.4-116.4a19.81,19.81,0,0,1,28,28L635.55,476.21A19.79,19.79,0,0,1,621.54,482Z"/><path class="cls-1" d="M939.46,482a19.79,19.79,0,0,1-14-5.8L809.06,359.81a19.81,19.81,0,0,1,28-28l116.4,116.4a19.81,19.81,0,0,1-14,33.81Z"/><path class="cls-1" d="M418.65,684.9a19.81,19.81,0,0,1-14-33.81L521,534.7a19.81,19.81,0,0,1,28,28L432.66,679.1A19.75,19.75,0,0,1,418.65,684.9Z"/><path class="cls-1" d="M736.56,684.9a19.72,19.72,0,0,1-14-5.8L606.16,562.71a19.81,19.81,0,0,1,28-28l116.4,116.39a19.81,19.81,0,0,1-14,33.81Z"/><path class="cls-1" d="M824.44,684.9a19.81,19.81,0,0,1-14-33.81L926.83,534.7a19.81,19.81,0,0,1,28,28L838.44,679.1A19.74,19.74,0,0,1,824.44,684.9Z"/><path class="cls-1" d="M1142.35,684.9a19.75,19.75,0,0,1-14-5.8L1012,562.71a19.81,19.81,0,1,1,28-28l116.4,116.39a19.81,19.81,0,0,1-14,33.81Z"/><path class="cls-2" d="M823.06,1090a19.81,19.81,0,0,1-14-33.81l116.39-116.4a19.81,19.81,0,0,1,28,28l-116.4,116.4A19.75,19.75,0,0,1,823.06,1090Z"/><path class="cls-2" d="M737.94,1090a19.75,19.75,0,0,1-14-5.8L607.53,967.8a19.81,19.81,0,0,1,28-28l116.39,116.4a19.81,19.81,0,0,1-14,33.81Z"/><path class="cls-2" d="M1026,887.11a19.81,19.81,0,0,1-14-33.81l116.39-116.4a19.81,19.81,0,0,1,28,28L1040,881.31A19.75,19.75,0,0,1,1026,887.11Z"/><path class="cls-2" d="M940.83,887.11a19.71,19.71,0,0,1-14-5.8l-116.4-116.4a19.81,19.81,0,1,1,28-28l116.4,116.4a19.81,19.81,0,0,1-14,33.81Z"/><path class="cls-2" d="M620.17,887.11a19.81,19.81,0,0,1-14-33.81l116.4-116.4a19.81,19.81,0,1,1,28,28l-116.4,116.4A19.71,19.71,0,0,1,620.17,887.11Z"/><path class="cls-2" d="M535.05,887.11a19.75,19.75,0,0,1-14-5.8l-116.4-116.4a19.81,19.81,0,1,1,28-28L549.05,853.3a19.81,19.81,0,0,1-14,33.81Z"/></svg>